HIERARCHY
ROOT hip
{
	OFFSET 0.000000 0.000000 0.000000
	CHANNELS 6 Xposition Yposition Zposition Xrotation Zrotation Yrotation 
	JOINT abdomen
	{
		OFFSET 0.000000 3.422050 0.000000
		CHANNELS 3 Xrotation Zrotation Yrotation 
		JOINT chest
		{
			OFFSET 0.000000 8.486693 -0.684411
			CHANNELS 3 Xrotation Zrotation Yrotation 
			JOINT neck
			{
				OFFSET 0.000000 10.266162 -0.273764
				CHANNELS 3 Xrotation Zrotation Yrotation 
				JOINT head
				{
					OFFSET 0.000000 3.148285 0.000000
					CHANNELS 3 Xrotation Zrotation Yrotation 
					End Site
					{
						OFFSET 0.000000 3.148289 0.000000
					}
				}
			}
			JOINT lCollar
			{
				OFFSET 3.422053 6.707223 -0.821293
				CHANNELS 3 Yrotation Zrotation Xrotation 
				JOINT lShldr
				{
					OFFSET 3.285171 0.000000 0.000000
					CHANNELS 3 Zrotation Yrotation Xrotation 
					JOINT lForeArm
					{
						OFFSET 10.129278 0.000000 0.000000
						CHANNELS 3 Yrotation Zrotation Xrotation 
						JOINT lHand
						{
							OFFSET 8.486692 0.000000 0.000000
							CHANNELS 3 Zrotation Yrotation Xrotation 
							End Site
							{
								OFFSET 4.106464 0.000000 0.000000
							}
						}
					}
				}
			}
			JOINT rCollar
			{
				OFFSET -3.558935 6.707223 -0.821293
				CHANNELS 3 Yrotation Zrotation Xrotation 
				JOINT rShldr
				{
					OFFSET -3.148289 0.000000 0.000000
					CHANNELS 3 Zrotation Yrotation Xrotation 
					JOINT rForeArm
					{
						OFFSET -10.266159 0.000000 0.000000
						CHANNELS 3 Yrotation Zrotation Xrotation 
						JOINT rHand
						{
							OFFSET -8.349810 0.000000 0.000000
							CHANNELS 3 Zrotation Yrotation Xrotation 
							End Site
							{
								OFFSET -4.106464 0.000000 0.000000
							}
						}
					}
				}
			}
		}
	}
	JOINT lThigh
	{
		OFFSET 5.338403 -1.642589 1.368821
		CHANNELS 3 Xrotation Zrotation Yrotation 
		JOINT lShin
		{
			OFFSET -2.053232 -20.121670 0.000000
			CHANNELS 3 Xrotation Zrotation Yrotation 
			JOINT lFoot
			{
				OFFSET 0.000000 -19.300380 -1.231939
				CHANNELS 3 Xrotation Yrotation Zrotation 
				End Site
				{
					OFFSET 0.000000 -2.463878 4.653993
				}
			}
		}
	}
	JOINT rThigh
	{
		OFFSET -5.338403 -1.642589 1.368821
		CHANNELS 3 Xrotation Zrotation Yrotation 
		JOINT rShin
		{
			OFFSET 2.053232 -20.121670 0.000000
			CHANNELS 3 Xrotation Zrotation Yrotation 
			JOINT rFoot
			{
				OFFSET 0.000000 -19.300380 -1.231939
				CHANNELS 3 Xrotation Yrotation Zrotation 
				End Site
				{
					OFFSET 0.000000 -2.463878 4.653993
				}
			}
		}
	}
}
MOTION
Frames: 18
Frame Time: 0.022176
0.000000 43.528500 0.000000 0.000000 0.000000 0.000000 0.000000 0.000000 0.000000 0.000000 0.000000 0.000000 0.000000 0.000000 0.000000 0.000000 0.000000 0.000000 0.000000 0.000000 0.000000 0.000000 0.000000 0.000000 0.000000 0.000000 0.000000 0.000000 0.000000 0.000000 0.000000 0.000000 0.000000 0.000000 0.000000 0.000000 0.000000 0.000000 0.000000 0.000000 0.000000 0.000000 0.000000 0.000000 0.000000 0.000000 0.000000 0.000000 0.000000 0.000000 0.000000 0.000000 0.000000 0.000000 0.000000 0.000000 0.000000 0.000000 0.000000 0.000000 
-0.844055 8.453835 0.315388 0.000000 -90.000000 0.000000 10.672783 -3.178938 -14.789108 20.858023 12.647738 -9.403082 -2.001480 8.999918 -0.001410 14.998176 0.000000 0.000000 23.293671 -3.148785 -24.829763 -85.221703 -44.017918 25.682171 27.362854 -20.605003 -0.488057 0.000000 0.000000 0.000000 -12.128123 61.346287 -107.730530 -10.400229 -15.050571 -12.542295 -42.827549 29.585655 22.066502 -14.912880 -28.952038 61.605125 6.532259 7.932734 8.217317 77.132347 2.498363 -3.545413 6.510414 2.992389 -0.203515 -16.766125 -11.149865 3.315594 36.586216 48.698223 -53.907867 36.778404 19.961472 11.291140 
-0.844055 8.453835 0.602746 0.000000 -90.000000 0.000000 9.574368 -3.042449 -15.609725 19.864014 12.719793 -9.897570 -2.001497 9.339767 -0.001433 14.741007 0.188791 0.031113 23.338140 -3.927453 -22.900871 -84.164497 -43.651913 24.993706 26.977684 -20.077547 -0.613716 0.000000 0.000000 0.000000 -12.813297 60.073456 -105.737671 -10.620988 -15.050794 -12.438814 -44.109566 30.073109 22.681423 -15.977697 -27.798119 61.246799 7.397865 7.899399 8.237166 76.061920 2.379685 -3.587151 6.510414 2.992389 -0.203515 -16.334534 -11.063727 3.464067 36.586216 48.698223 -53.907867 36.543926 20.308098 11.551982 
-0.844055 8.453835 0.890105 0.000000 -90.000000 0.000000 8.471521 -2.921427 -16.434748 18.867889 12.783536 -10.394017 -2.001515 9.679830 -0.001455 14.483792 0.377825 0.061396 23.409380 -4.708387 -20.958910 -83.118942 -43.276512 24.318253 26.594826 -19.549046 -0.735251 0.000000 0.000000 0.000000 -13.389193 58.785213 -103.841347 -10.841753 -15.050626 -12.335326 -45.406265 30.549316 23.313044 -17.043512 -26.646034 60.866776 8.264180 7.865739 8.256519 74.990135 2.260078 -3.626715 6.510414 2.992389 -0.203515 -15.902711 -10.978666 3.613195 36.586216 48.698223 -53.907867 36.307201 20.653805 11.814992 
-0.844055 8.453834 1.177463 0.000000 -90.000000 0.000000 7.364763 -2.816086 -17.263659 17.869904 12.838905 -10.892193 -2.001533 10.020103 -0.001477 14.226524 0.567097 0.090846 23.507788 -5.490165 -19.004343 -82.085167 -42.891983 23.655920 26.214224 -19.019566 -0.852707 0.000000 0.000000 0.000000 -13.866314 57.484100 -102.031273 -11.062532 -15.050076 -12.231835 -46.717445 31.013714 23.961206 -18.110798 -25.496740 60.465473 9.131107 7.831768 8.275372 73.917198 2.139603 -3.664075 6.510414 2.992389 -0.203515 -15.470675 -10.894685 3.762968 36.586212 48.698227 -53.907879 36.068157 20.998550 12.080191 
-0.844055 8.453834 1.464822 0.000000 -90.000000 0.000000 6.254630 -2.726614 -18.095928 16.870314 12.885839 -11.391850 -2.001552 10.360580 -0.001500 13.969211 0.756600 0.119462 23.633661 -6.271323 -17.037638 -81.063286 -42.498589 23.006824 25.835817 -18.489161 -0.966126 0.000000 0.000000 0.000000 -14.253942 56.172462 -100.298325 -11.283319 -15.049140 -12.128344 -48.042881 31.465797 24.625719 -19.179972 -24.351198 60.043251 9.998546 7.797493 8.293715 72.843262 2.018320 -3.699204 6.510413 2.992389 -0.203515 -15.038447 -10.811800 3.913374 36.586216 48.698219 -53.907852 35.826820 21.342325 12.347602 
-0.844055 8.453834 1.752180 0.000000 -90.000000 0.000000 5.141663 -2.653172 -18.931013 15.869390 12.924296 -11.892754 -2.001570 10.701255 -0.001522 13.711844 0.946327 0.147242 23.787252 -7.050372 -15.059316 -80.053352 -42.096573 22.371025 25.459555 -17.957895 -1.075547 0.000000 0.000000 0.000000 -14.560302 54.852455 -98.634491 -11.504110 -15.047820 -12.024852 -49.382317 31.905043 25.306353 -20.251431 -23.210371 59.600498 10.866399 7.762927 8.311540 71.768555 1.896292 -3.732080 6.510414 2.992389 -0.203515 -14.606035 -10.730018 4.064398 36.586205 48.698219 -53.907864 35.583145 21.685093 12.617241 
-0.844055 8.453834 2.039539 0.000000 -90.000000 0.000000 4.026417 -2.595893 -19.768362 14.867388 12.954230 -12.394653 -2.001588 11.042117 -0.001545 13.454428 1.136271 0.174185 23.968693 -7.825799 -13.069919 -79.055405 -41.686188 21.748558 25.085371 -17.425829 -1.181013 0.000000 0.000000 0.000000 -14.792701 53.526142 -97.032684 -11.724904 -15.046116 -11.921366 -50.735439 32.330956 26.002831 -21.325529 -22.075233 59.137573 11.734569 7.728081 8.328839 70.693199 1.773581 -3.762677 6.510414 2.992389 -0.203515 -14.173460 -10.649345 4.216029 36.586216 48.698223 -53.907867 35.337120 22.026827 12.889127 
-0.844055 8.453833 2.326897 0.000000 -90.000000 0.000000 2.909457 -2.554880 -20.607424 13.864587 12.975617 -12.897305 -2.001606 11.383170 -0.001568 13.196959 1.326427 0.200287 24.178070 -8.596086 -11.070045 -78.069496 -41.267712 21.139471 24.713217 -16.893019 -1.282561 0.000000 0.000000 0.000000 -14.957653 52.195450 -95.486633 -11.945696 -15.044026 -11.817884 -52.101875 32.743034 26.714811 -22.402588 -20.946732 58.654858 12.602954 7.692969 8.345611 69.617386 1.650251 -3.790977 6.510414 2.992389 -0.203515 -13.740731 -10.569791 4.368251 36.586216 48.698223 -53.907867 35.088715 22.367493 13.163284 
-0.844055 8.453833 2.614256 0.000000 -90.000000 0.000000 1.791349 -2.530206 -21.447617 12.861242 12.988426 -13.400453 -2.001625 11.724401 -0.001591 12.939432 1.516787 0.225549 24.415346 -9.359703 -9.060325 -77.095634 -40.841415 20.543770 24.343029 -16.359522 -1.380230 0.000000 0.000000 0.000000 -15.060936 50.862194 -93.990807 -12.166485 -15.041549 -11.714412 -53.481201 33.140781 27.441916 -23.482889 -19.825848 58.152695 13.471451 7.657599 8.361843 68.541344 1.526368 -3.816964 6.510414 2.992389 -0.203515 -13.307873 -10.491363 4.521052 36.586216 48.698223 -53.907867 34.837921 22.707075 13.439734 
-0.844055 8.453833 2.901614 0.000000 -90.000000 0.000000 0.672665 -2.521919 -22.288389 11.857627 12.992645 -13.903852 -2.001644 12.065804 -0.001615 12.681851 1.707345 0.249968 24.680416 -10.115135 -7.041440 -76.133751 -40.407524 19.961409 23.974754 -15.825400 -1.474058 0.000000 0.000000 0.000000 -15.107709 49.528111 -92.540314 -12.387270 -15.038692 -11.610953 -54.872993 33.523750 28.183739 -24.566690 -18.713531 57.631477 14.339969 7.621986 8.377533 67.465210 1.401996 -3.840622 6.510414 2.992389 -0.203515 -12.874892 -10.414069 4.674418 36.586216 48.698223 -53.907867 34.584709 23.045544 13.718497 
-0.844055 8.453833 3.188973 0.000000 -90.000000 0.000000 -0.446020 -2.530033 -23.129168 10.854014 12.988276 -14.407251 -2.001663 12.407379 -0.001638 12.424212 1.898095 0.273541 24.973055 -10.860869 -5.014112 -75.183876 -39.966312 19.392384 23.608351 -15.290714 -1.564082 0.000000 0.000000 0.000000 -15.102615 48.194855 -91.130829 -12.608045 -15.035447 -11.507507 -56.276764 33.891499 28.939806 -25.654217 -17.610743 57.091583 15.208405 7.586143 8.392677 66.389191 1.277203 -3.861938 6.510414 2.992389 -0.203515 -12.441808 -10.337918 4.828337 36.586216 48.698223 -53.907867 34.329075 23.382870 13.999598 
-0.844055 8.453833 3.476331 0.000000 -90.000000 0.000000 -1.564132 -2.554533 -23.969370 9.850672 12.975315 -14.910392 -2.001682 12.749112 -0.001662 12.166509 2.089028 0.296269 25.292965 -11.595433 -2.979131 -74.245949 -39.518070 18.836645 23.243755 -14.755521 -1.650339 0.000000 0.000000 0.000000 -15.049801 46.863979 -89.758492 -12.828806 -15.031814 -11.404074 -57.691898 34.243568 29.709568 -26.745644 -16.518412 56.533382 16.076662 7.550080 8.407269 65.313446 1.152053 -3.880901 6.510414 2.992389 -0.203515 -12.008638 -10.262915 4.982792 36.586212 48.698223 -53.907864 34.070980 23.719015 14.283042 
-0.844055 8.453832 3.763690 0.000000 -90.000000 0.000000 -2.681100 -2.595374 -24.808434 8.847869 12.953781 -15.413034 -2.001701 13.091002 -0.001685 11.908750 2.280139 0.318148 25.639734 -12.317372 -0.937318 -73.319893 -39.063026 18.294117 22.880915 -14.219874 -1.732862 0.000000 0.000000 0.000000 -14.953006 45.536991 -88.419884 -13.049555 -15.027800 -11.300663 -59.117847 34.579582 30.492476 -27.841118 -15.437468 55.957260 16.944632 7.513808 8.421302 64.238182 1.026615 -3.897506 6.510414 2.992389 -0.203515 -11.575399 -10.189070 5.137773 36.586216 48.698223 -53.907867 33.810421 24.053972 14.568866 
-0.844056 8.453832 4.051048 0.000000 -90.000000 0.000000 -3.796352 -2.652481 -25.645794 7.845877 12.923696 -15.914924 -2.001721 13.433043 -0.001709 11.650926 2.471422 0.339178 26.012863 -13.025286 1.110436 -72.405624 -38.601452 17.764721 22.519777 -13.683833 -1.811686 0.000000 0.000000 0.000000 -14.815598 44.215309 -87.111992 -13.270285 -15.023401 -11.197270 -60.553936 34.899136 31.287895 -28.940765 -14.368830 55.363644 17.812231 7.477345 8.434774 63.163574 0.900954 -3.911746 6.510414 2.992389 -0.203515 -11.142105 -10.116388 5.293263 36.586216 48.698223 -53.907867 33.547375 24.387703 14.857086 
-0.844056 8.453832 4.338407 0.000000 -90.000000 0.000000 -4.909329 -2.725750 -26.480896 6.844963 12.885092 -16.415817 -2.001741 13.775229 -0.001733 11.393037 2.662868 0.359356 26.411737 -13.717815 3.163194 -71.503075 -38.133606 17.248373 22.160288 -13.147451 -1.886844 0.000000 0.000000 0.000000 -14.640635 42.900314 -85.832146 -13.490995 -15.018617 -11.093902 -61.999466 35.201870 32.095154 -30.044653 -13.313369 54.752903 18.679342 7.440697 8.447680 62.089787 0.775139 -3.923618 6.510415 2.992389 -0.203515 -10.708774 -10.044878 5.449251 36.586220 48.698223 -53.907867 33.281811 24.720167 15.147720 
-0.844056 8.453832 4.625765 0.000000 -90.000000 0.000000 -6.019475 -2.815051 -27.313179 5.845387 12.838008 -16.915461 -2.001761 14.117550 -0.001758 11.135080 2.854471 0.378681 26.835661 -14.393666 5.219959 -70.612129 -37.659737 16.744963 21.802408 -12.610797 -1.958370 0.000000 0.000000 0.000000 -14.430890 41.593281 -84.577911 -13.711684 -15.013444 -10.990558 -63.453720 35.487473 32.913551 -31.152824 -12.271963 54.125465 19.545883 7.403885 8.460019 61.017025 0.649235 -3.933121 6.510415 2.992389 -0.203515 -10.275419 -9.974542 5.605719 36.586216 48.698223 -53.907867 33.013706 25.051346 15.440782 
-0.844056 8.453831 4.913124 0.000000 -90.000000 0.000000 -7.126249 -2.920222 -28.142115 4.847414 12.782490 -17.413614 -2.001781 14.460004 -0.001782 10.877058 3.046226 0.397152 27.283836 -15.051611 7.279685 -69.732658 -37.180099 16.254370 21.446077 -12.073919 -2.026297 0.000000 0.000000 0.000000 -14.632887 40.280190 -83.004227 -13.932351 -15.007896 -10.887246 -64.915894 35.755623 33.742313 -32.265320 -11.245464 53.481808 20.411743 7.366914 8.471785 59.945442 0.523310 -3.940261 6.510414 2.992389 -0.203515 -9.842059 -9.905389 5.762654 36.586216 48.698223 -53.907867 32.743061 25.381218 15.736307 
